<svg xmlns="http://www.w3.org/2000/svg" width="900" height="620" viewBox="0 0 900 620" xmlns:c2pa="http://c2pa.org/manifest"><metadata><c2pa:manifest>AAAWgmp1bWIAAAAeanVtZGMycGEAEQAQgAAAqgA4m3EDYzJwYQAAABZcanVtYgAAAEdqdW1kYzJtYQARABCAAACqADibcQN1cm46YzJwYTozNjI0M2I3Yi0zMjFjLTRkY2QtYTE1MC1hNzAxMWEzZjU2ODkAAAADl2p1bWIAAAApanVtZGMyYXMAEQAQgAAAqgA4m3EDYzJwYS5hc3NlcnRpb25zAAAAALxqdW1iAAAARGp1bWRjYm9yABEAEIAAAKoAOJtxE2MycGEuaW5ncmVkaWVudC52MwAAAAAYYzJzaBrTzCVDAblNKfLPcZul7QkAAABwY2JvcqNpZGM6Zm9ybWF0bWltYWdlL3N2Zyt4bWxqaW5zdGFuY2VJRHgseG1wOmlpZDoxNDNmZGZiZi03ZWFmLTRmMGEtYTMzNS0zOTk0MTVlYWZjMDRscmVsYXRpb25zaGlwaHBhcmVudE9mAAAB4mp1bWIAAABBanVtZGNib3IAEQAQgAAAqgA4m3ETYzJwYS5hY3Rpb25zLnYyAAAAABhjMnNo2m+c7+bpDW8IqGUY2kYStwAAAZljYm9yomdhY3Rpb25zgqJmYWN0aW9ua2MycGEub3BlbmVkanBhcmFtZXRlcnOha2luZ3JlZGllbnRzgaJjdXJseC1zZWxmI2p1bWJmPWMycGEuYXNzZXJ0aW9ucy9jMnBhLmluZ3JlZGllbnQudjNkaGFzaFggw74pQ2suLH2sotJhuOqHEl3ZAeZ6NSRi4ZMYxK/c9HWkZmFjdGlvbngdY29tLmFudGhyb3BpYy5jbGF1ZGUucHJvdmlkZWRqcGFyYW1ldGVyc6F4H2NvbS5hbnRocm9waWMub3JpZ2luLWNvbmZpZGVuY2VndW5rbm93bmtkZXNjcmlwdGlvbnhmQ2xhdWRlIHByb3ZpZGVkIHRoaXMgZmlsZSBhdCB0aGUgcmVxdWVzdCBvZiBhIHVzZXIgYW5kIG1heSBoYXZlIGNyZWF0ZWQgb3IgbW9kaWZpZWQgdGhlIGZpbGUgY29udGVudHMubXNvZnR3YXJlQWdlbnShZG5hbWVmQ2xhdWRlcmFsbEFjdGlvbnNJbmNsdWRlZPUAAADIanVtYgAAAEBqdW1kY2JvcgARABCAAACqADibcRNjMnBhLmhhc2guZGF0YQAAAAAYYzJzaMfHqCD14j1XtVfa+Xml8XAAAACAY2JvcqVjYWxnZnNoYTI1NmNwYWRNAAAAAAAAAAAAAAAAAGRoYXNoWCCoHA4RZgYmPhuGHtx64dscGRei5qi3I9Y33N68nhtlOGRuYW1lbmp1bWJmIG1hbmlmZXN0amV4Y2x1c2lvbnOBomVzdGFydBiWZmxlbmd0aBkeBAAAAj5qdW1iAAAAJ2p1bWRjMmNsABEAEIAAAKoAOJtxA2MycGEuY2xhaW0udjIAAAACD2Nib3KlY2FsZ2ZzaGEyNTZpc2lnbmF0dXJleE1zZWxmI2p1bWJmPS9jMnBhL3VybjpjMnBhOjM2MjQzYjdiLTMyMWMtNGRjZC1hMTUwLWE3MDExYTNmNTY4OS9jMnBhLnNpZ25hdHVyZWppbnN0YW5jZUlEeCx4bXA6aWlkOjU1NWY3MzM3LTYzMTgtNGZkZi05YjRkLTQ2NGEwMWQ2MGZmNHJjcmVhdGVkX2Fzc2VydGlvbnODomN1cmx4LXNlbGYjanVtYmY9YzJwYS5hc3NlcnRpb25zL2MycGEuaW5ncmVkaWVudC52M2RoYXNoWCDDvilDay4sfayi0mG46ocSXdkB5no1JGLhkxjEr9z0daJjdXJseCpzZWxmI2p1bWJmPWMycGEuYXNzZXJ0aW9ucy9jMnBhLmFjdGlvbnMudjJkaGFzaFggX5pRnsF+DPw/Z5RP/xV9Pn54kAm7Z6M1E9gaEGjtYgGiY3VybHgpc2VsZiNqdW1iZj1jMnBhLmFzc2VydGlvbnMvYzJwYS5oYXNoLmRhdGFkaGFzaFgg+cNC3A2mqQEBFQFHMFl5rMTNc3ugy5LzK86jidmXiw90Y2xhaW1fZ2VuZXJhdG9yX2luZm+jZG5hbWVvQW50aHJvcGljIEZpbGVzZ3ZlcnNpb25lMS4wLjBrc3BlY1ZlcnNpb25lMi40LjAAABA4anVtYgAAAChqdW1kYzJjcwARABCAAACqADibcQNjMnBhLnNpZ25hdHVyZQAAABAIY2JvctKEWQISogEmGCFZAgowggIGMIIBjaADAgECAhRA5aAK7sI50L64g/oGQgU9Z1UTADAKBggqhkjOPQQDAzBJMRcwFQYDVQQKEw5BbnRocm9waWMsIFBCQzEuMCwGA1UEAxMlQW50aHJvcGljIENvbnRlbnQgQ3JlZGVudGlhbHMgUm9vdCBDQTAeFw0yNjA4MDcxODQzNTZaFw0yODA4MDYxOTQzNTZaMEQxFzAVBgNVBAoTDkFudGhyb3BpYywgUEJDMSkwJwYDVQQDEyBBbnRocm9waWMgQ2xhdWRlIENvbnRlbnQgU2lnbmluZzBZMBMGByqGSM49AgEGCCqGSM49AwEHA0IABJh6CmvLUBgFFNU0vUKlOVtE6djd17L5SuwX0LemFisBM3dkd/3cyjxFA3Qo5S46fX0/ihY0VZ7mfb9KF703t5OjWDBWMA4GA1UdDwEB/wQEAwIHgDAVBgNVHSUEDjAMBgorBgEEAYPoXgIBMAwGA1UdEwEB/wQCMAAwHwYDVR0jBBgwFoAUzlHiBIFOZFsj+OPEz5o+nMHXXMIwCgYIKoZIzj0EAwMDZwAwZAIwMXMdFJ4BetLLVY7ORuE9noqbbAZOZn/aArXyTwFAZfKrPzxF2vPoJNf1+UCdg1XGAjBwX1zd9WGqYkqmL5SFqw1QySjr1zJfpJM9+1rdDwSPLMOPOjKuiXjoU/pUUeG9RwmhY3BhZFkNngAAAAAAAAAAAAAAAAAAAAAAAAAAAAAAAAAAAAAAAAAAAAAAAAAAAAAAAAAAAAAAAAAAAAAAAAAAAAAAAAAAAAAAAAAAAAAAAAAAAAAAAAAAAAAAAAAAAAAAAAAAAAAAAAAAAAAAAAAAAAAAAAAAAAAAAAAAAAAAAAAAAAAAAAAAAAAAAAAAAAAAAAAAAAAAAAAAAAAAAAAAAAAAAAAAAAAAAAAAAAAAAAAAAAAAAAAAAAAAAAAAAAAAAAAAAAAAAAAAAAAAAAAAAAAAAAAAAAAAAAAAAAAAAAAAAAAAAAAAAAAAAAAAAAAAAAAAAAAAAAAAAAAAAAAAAAAAAAAAAAAAAAAAAAAAAAAAAAAAAAAAAAAAAAAAAAAAAAAAAAAAAAAAAAAAAAAAAAAAAAAAAAAAAAAAAAAAAAAAAAAAAAAAAAAAAAAAAAAAAAAAAAAAAAAAAAAAAAAAAAAAAAAAAAAAAAAAAAAAAAAAAAAAAAAAAAAAAAAAAAAAAAAAAAAAAAAAAAAAAAAAAAAAAAAAAAAAAAAAAAAAAAAAAAAAAAAAAAAAAAAAAAAAAAAAAAAAAAAAAAAAAAAAAAAAAAAAAAAAAAAAAAAAAAAAAAAAAAAAAAAAAAAAAAAAAAAAAAAAAAAAAAAAAAAAAAAAAAAAAAAAAAAAAAAAAAAAAAAAAAAAAAAAAAAAAAAAAAAAAAAAAAAAAAAAAAAAAAAAAAAAAAAAAAAAAAAAAAAAAAAAAAAAAAAAAAAAAAAAAAAAAAAAAAAAAAAAAAAAAAAAAAAAAAAAAAAAAAAAAAAAAAAAAAAAAAAAAAAAAAAAAAAAAAAAAAAAAAAAAAAAAAAAAAAAAAAAAAAAAAAAAAAAAAAAAAAAAAAAAAAAAAAAAAAAAAAAAAAAAAAAAAAAAAAAAAAAAAAAAAAAAAAAAAAAAAAAAAAAAAAAAAAAAAAAAAAAAAAAAAAAAAAAAAAAAAAAAAAAAAAAAAAAAAAAAAAAAAAAAAAAAAAAAAAAAAAAAAAAAAAAAAAAAAAAAAAAAAAAAAAAAAAAAAAAAAAAAAAAAAAAAAAAAAAAAAAAAAAAAAAAAAAAAAAAAAAAAAAAAAAAAAAAAAAAAAAAAAAAAAAAAAAAAAAAAAAAAAAAAAAAAAAAAAAAAAAAAAAAAAAAAAAAAAAAAAAAAAAAAAAAAAAAAAAAAAAAAAAAAAAAAAAAAAAAAAAAAAAAAAAAAAAAAAAAAAAAAAAAAAAAAAAAAAAAAAAAAAAAAAAAAAAAAAAAAAAAAAAAAAAAAAAAAAAAAAAAAAAAAAAAAAAAAAAAAAAAAAAAAAAAAAAAAAAAAAAAAAAAAAAAAAAAAAAAAAAAAAAAAAAAAAAAAAAAAAAAAAAAAAAAAAAAAAAAAAAAAAAAAAAAAAAAAAAAAAAAAAAAAAAAAAAAAAAAAAAAAAAAAAAAAAAAAAAAAAAAAAAAAAAAAAAAAAAAAAAAAAAAAAAAAAAAAAAAAAAAAAAAAAAAAAAAAAAAAAAAAAAAAAAAAAAAAAAAAAAAAAAAAAAAAAAAAAAAAAAAAAAAAAAAAAAAAAAAAAAAAAAAAAAAAAAAAAAAAAAAAAAAAAAAAAAAAAAAAAAAAAAAAAAAAAAAAAAAAAAAAAAAAAAAAAAAAAAAAAAAAAAAAAAAAAAAAAAAAAAAAAAAAAAAAAAAAAAAAAAAAAAAAAAAAAAAAAAAAAAAAAAAAAAAAAAAAAAAAAAAAAAAAAAAAAAAAAAAAAAAAAAAAAAAAAAAAAAAAAAAAAAAAAAAAAAAAAAAAAAAAAAAAAAAAAAAAAAAAAAAAAAAAAAAAAAAAAAAAAAAAAAAAAAAAAAAAAAAAAAAAAAAAAAAAAAAAAAAAAAAAAAAAAAAAAAAAAAAAAAAAAAAAAAAAAAAAAAAAAAAAAAAAAAAAAAAAAAAAAAAAAAAAAAAAAAAAAAAAAAAAAAAAAAAAAAAAAAAAAAAAAAAAAAAAAAAAAAAAAAAAAAAAAAAAAAAAAAAAAAAAAAAAAAAAAAAAAAAAAAAAAAAAAAAAAAAAAAAAAAAAAAAAAAAAAAAAAAAAAAAAAAAAAAAAAAAAAAAAAAAAAAAAAAAAAAAAAAAAAAAAAAAAAAAAAAAAAAAAAAAAAAAAAAAAAAAAAAAAAAAAAAAAAAAAAAAAAAAAAAAAAAAAAAAAAAAAAAAAAAAAAAAAAAAAAAAAAAAAAAAAAAAAAAAAAAAAAAAAAAAAAAAAAAAAAAAAAAAAAAAAAAAAAAAAAAAAAAAAAAAAAAAAAAAAAAAAAAAAAAAAAAAAAAAAAAAAAAAAAAAAAAAAAAAAAAAAAAAAAAAAAAAAAAAAAAAAAAAAAAAAAAAAAAAAAAAAAAAAAAAAAAAAAAAAAAAAAAAAAAAAAAAAAAAAAAAAAAAAAAAAAAAAAAAAAAAAAAAAAAAAAAAAAAAAAAAAAAAAAAAAAAAAAAAAAAAAAAAAAAAAAAAAAAAAAAAAAAAAAAAAAAAAAAAAAAAAAAAAAAAAAAAAAAAAAAAAAAAAAAAAAAAAAAAAAAAAAAAAAAAAAAAAAAAAAAAAAAAAAAAAAAAAAAAAAAAAAAAAAAAAAAAAAAAAAAAAAAAAAAAAAAAAAAAAAAAAAAAAAAAAAAAAAAAAAAAAAAAAAAAAAAAAAAAAAAAAAAAAAAAAAAAAAAAAAAAAAAAAAAAAAAAAAAAAAAAAAAAAAAAAAAAAAAAAAAAAAAAAAAAAAAAAAAAAAAAAAAAAAAAAAAAAAAAAAAAAAAAAAAAAAAAAAAAAAAAAAAAAAAAAAAAAAAAAAAAAAAAAAAAAAAAAAAAAAAAAAAAAAAAAAAAAAAAAAAAAAAAAAAAAAAAAAAAAAAAAAAAAAAAAAAAAAAAAAAAAAAAAAAAAAAAAAAAAAAAAAAAAAAAAAAAAAAAAAAAAAAAAAAAAAAAAAAAAAAAAAAAAAAAAAAAAAAAAAAAAAAAAAAAAAAAAAAAAAAAAAAAAAAAAAAAAAAAAAAAAAAAAAAAAAAAAAAAAAAAAAAAAAAAAAAAAAAAAAAAAAAAAAAAAAAAAAAAAAAAAAAAAAAAAAAAAAAAAAAAAAAAAAAAAAAAAAAAAAAAAAAAAAAAAAAAAAAAAAAAAAAAAAAAAAAAAAAAAAAAAAAAAAAAAAAAAAAAAAAAAAAAAAAAAAAAAAAAAAAAAAAAAAAAAAAAAAAAAAAAAAAAAAAAAAAAAAAAAAAAAAAAAAAAAAAAAAAAAAAAAAAAAAAAAAAAAAAAAAAAAAAAAAAAAAAAAAAAAAAAAAAAAAAAAAAAAAAAAAAAAAAAAAAAAAAAAAAAAAAAAAAAAAAAAAAAAAAAAAAAAAAAAAAAAAAAAAAAAAAAAAAAAAAAAAAAAAAAAAAAAAAAAAAAAAAAAAAAAAAAAAAAAAAAAAAAAAAAAAAAAAAAAAAAAAAAAAAAAAAAAAAAAAAAAAAAAAAAAAAAAAAAAAAAAAAAAAAAAAAAAAAAAAAAAAAAAAAAAAAAAAAAAAAAAAAAAAAAAAAAAAAAAAAAAAAAAAAAAAAAAAAAAAAAAAAAAAAAAAAAAAAAAAAAAAAAAAAAAAAAAAAAAAAAAAAAAAAAAAAAAAAAAAAAAAAAAAAAAAAAAAAAAAAAAAAAAAAAAAAAAAAAAAAAAAAAAAAAAAAAAAAAAAAAAAAAAAAAAAAAAAAAAAAAAAAAAAAAAAAAAAAAAAAAAAAAAAAAAAAAAAAAAAAAAAAAAAAAAAAAAAAAAAAAAAAAAAAAAAAAAAAAAAAAAAAAAAAAAAAAAAAAAAAAAAAAAAAAAAAAAAAAAAAAAAAAAAAAAAAAAAAAAAAAAAAAAAAAAAAAAAAAAAAAAAAAAAAAAAAAAAAAAAAAAAAAAAAAAAAAAAAAAAAAAAAAAAAAAAAAAAAAAAAAAAAAAAAAAAAAAAAAAAAAAAAAAAAAAAAAAAAAAAAAAAAAAAAAAAAAAAAAAAAAAAAAAAAAAAAAAAAAAAAAAAAAAAAAAAAAAAAAAAAAAAAAAAAAAAAAAAAAAAAAAAAAAAAAAAAAAAAAAAAAAAAAAAAAAAAAAAAAAAAAAAAAAAAAAAAAAAAAAAAAAAAAAAAAAAAAAAAAAAAAAAAAAAAAAAAAAAAAAAAAAAAAAAAAAAAAAAAAAAAAAAAAAAAAAAAAAAAAAAAAAAAAAAAAAAAAAAAAAAAAAAAAAAAAAAAAAAAAAAAAAAAAAAAAAAAAAAAAAAAAAAAAAAAAAAAAAAAAAAAAAAAAAAAAAAAAAAAAAAAAAAAAAAAAAAAAAAAAAAAAAAAAAAAAAAAAAAAAAAAAAAAAAAAAAAAAAAAAAAAAAAAAAAAAAAAAAAAAAAAAAAAAAAAAAAAAAAAAAAAAAAAAAAAAAAAAAAAAAAAAAAAAAAAAAAAAAAAAAAAAAAAAAAAAAAAAAAAAAAAAAAAAAAAAAAAAAAAAAAAAAAAAAAAAAAAAAAAAAAAAAAAAAAAAAAAAAAAAAAAAAAAAAAAAAAAAAAAAAAAAAAAAAAAAAAAAAAAAAAAAAAAAAAAAAAAAAAAAAAAAAAAAAAAAAAAAAAAAAAAAAAAAAAAAAAAAAAAAAAAAAAAAAAAAAAAAAAAAAAAAAAAAAAAAAAAAAAAAAAAAAAAAAAAAAAAAAPZYQHDjf6iJSHwdaVnxxtGxpnoD161z83US1vTy/zjPh+m1EHlS8rRBd2ugCSnFcVQGJT8hP5OQlMRVVa0cWwkNeZs=</c2pa:manifest></metadata><rect width="900" height="620" fill="#FFFFFF"/><text x="450.00" y="34.00" font-family="'Noto Sans CJK TC','Noto Sans TC','Microsoft JhengHei','PingFang TC','Heiti TC',sans-serif" font-size="18" fill="#1F2733" text-anchor="middle" dominant-baseline="middle" font-weight="700">示範柱的 P-M 互制圖：四個控制點決定整條曲線</text><text x="450.00" y="58.00" font-family="'Noto Sans CJK TC','Noto Sans TC','Microsoft JhengHei','PingFang TC','Heiti TC',sans-serif" font-size="13" fill="#6B7684" text-anchor="middle" dominant-baseline="middle" font-weight="400">60×60 cm、8-#9、f'c=280、fy=4200 kgf/cm²</text><rect x="110" y="96" width="520" height="440" rx="8" fill="#FFFFFF" stroke="#E1E6ED" stroke-width="1.4"/><line x1="110.00" y1="96.00" x2="110.00" y2="536.00" stroke="#E1E6ED" stroke-width="1.0" stroke-linecap="round" stroke-dasharray="4 4" opacity="1.0"/><line x1="110.00" y1="536.00" x2="110.00" y2="542.00" stroke="#6B7684" stroke-width="1.4" stroke-linecap="round" opacity="1.0"/><text x="110.00" y="556.00" font-family="'Noto Sans CJK TC','Noto Sans TC','Microsoft JhengHei','PingFang TC','Heiti TC',sans-serif" font-size="12" fill="#6B7684" text-anchor="middle" dominant-baseline="middle" font-weight="400">0</text><line x1="225.56" y1="96.00" x2="225.56" y2="536.00" stroke="#E1E6ED" stroke-width="1.0" stroke-linecap="round" stroke-dasharray="4 4" opacity="1.0"/><line x1="225.56" y1="536.00" x2="225.56" y2="542.00" stroke="#6B7684" stroke-width="1.4" stroke-linecap="round" opacity="1.0"/><text x="225.56" y="556.00" font-family="'Noto Sans CJK TC','Noto Sans TC','Microsoft JhengHei','PingFang TC','Heiti TC',sans-serif" font-size="12" fill="#6B7684" text-anchor="middle" dominant-baseline="middle" font-weight="400">30</text><line x1="341.11" y1="96.00" x2="341.11" y2="536.00" stroke="#E1E6ED" stroke-width="1.0" stroke-linecap="round" stroke-dasharray="4 4" opacity="1.0"/><line x1="341.11" y1="536.00" x2="341.11" y2="542.00" stroke="#6B7684" stroke-width="1.4" stroke-linecap="round" opacity="1.0"/><text x="341.11" y="556.00" font-family="'Noto Sans CJK TC','Noto Sans TC','Microsoft JhengHei','PingFang TC','Heiti TC',sans-serif" font-size="12" fill="#6B7684" text-anchor="middle" dominant-baseline="middle" font-weight="400">60</text><line x1="456.67" y1="96.00" x2="456.67" y2="536.00" stroke="#E1E6ED" stroke-width="1.0" stroke-linecap="round" stroke-dasharray="4 4" opacity="1.0"/><line x1="456.67" y1="536.00" x2="456.67" y2="542.00" stroke="#6B7684" stroke-width="1.4" stroke-linecap="round" opacity="1.0"/><text x="456.67" y="556.00" font-family="'Noto Sans CJK TC','Noto Sans TC','Microsoft JhengHei','PingFang TC','Heiti TC',sans-serif" font-size="12" fill="#6B7684" text-anchor="middle" dominant-baseline="middle" font-weight="400">90</text><line x1="572.22" y1="96.00" x2="572.22" y2="536.00" stroke="#E1E6ED" stroke-width="1.0" stroke-linecap="round" stroke-dasharray="4 4" opacity="1.0"/><line x1="572.22" y1="536.00" x2="572.22" y2="542.00" stroke="#6B7684" stroke-width="1.4" stroke-linecap="round" opacity="1.0"/><text x="572.22" y="556.00" font-family="'Noto Sans CJK TC','Noto Sans TC','Microsoft JhengHei','PingFang TC','Heiti TC',sans-serif" font-size="12" fill="#6B7684" text-anchor="middle" dominant-baseline="middle" font-weight="400">120</text><line x1="110.00" y1="514.18" x2="630.00" y2="514.18" stroke="#E1E6ED" stroke-width="1.0" stroke-linecap="round" stroke-dasharray="4 4" opacity="1.0"/><line x1="104.00" y1="514.18" x2="110.00" y2="514.18" stroke="#6B7684" stroke-width="1.4" stroke-linecap="round" opacity="1.0"/><text x="99.00" y="514.18" font-family="'Noto Sans CJK TC','Noto Sans TC','Microsoft JhengHei','PingFang TC','Heiti TC',sans-serif" font-size="12" fill="#6B7684" text-anchor="end" dominant-baseline="middle" font-weight="400">0</text><line x1="110.00" y1="405.09" x2="630.00" y2="405.09" stroke="#E1E6ED" stroke-width="1.0" stroke-linecap="round" stroke-dasharray="4 4" opacity="1.0"/><line x1="104.00" y1="405.09" x2="110.00" y2="405.09" stroke="#6B7684" stroke-width="1.4" stroke-linecap="round" opacity="1.0"/><text x="99.00" y="405.09" font-family="'Noto Sans CJK TC','Noto Sans TC','Microsoft JhengHei','PingFang TC','Heiti TC',sans-serif" font-size="12" fill="#6B7684" text-anchor="end" dominant-baseline="middle" font-weight="400">300</text><line x1="110.00" y1="296.00" x2="630.00" y2="296.00" stroke="#E1E6ED" stroke-width="1.0" stroke-linecap="round" stroke-dasharray="4 4" opacity="1.0"/><line x1="104.00" y1="296.00" x2="110.00" y2="296.00" stroke="#6B7684" stroke-width="1.4" stroke-linecap="round" opacity="1.0"/><text x="99.00" y="296.00" font-family="'Noto Sans CJK TC','Noto Sans TC','Microsoft JhengHei','PingFang TC','Heiti TC',sans-serif" font-size="12" fill="#6B7684" text-anchor="end" dominant-baseline="middle" font-weight="400">600</text><line x1="110.00" y1="186.91" x2="630.00" y2="186.91" stroke="#E1E6ED" stroke-width="1.0" stroke-linecap="round" stroke-dasharray="4 4" opacity="1.0"/><line x1="104.00" y1="186.91" x2="110.00" y2="186.91" stroke="#6B7684" stroke-width="1.4" stroke-linecap="round" opacity="1.0"/><text x="99.00" y="186.91" font-family="'Noto Sans CJK TC','Noto Sans TC','Microsoft JhengHei','PingFang TC','Heiti TC',sans-serif" font-size="12" fill="#6B7684" text-anchor="end" dominant-baseline="middle" font-weight="400">900</text><line x1="110.00" y1="114.18" x2="630.00" y2="114.18" stroke="#E1E6ED" stroke-width="1.0" stroke-linecap="round" stroke-dasharray="4 4" opacity="1.0"/><line x1="104.00" y1="114.18" x2="110.00" y2="114.18" stroke="#6B7684" stroke-width="1.4" stroke-linecap="round" opacity="1.0"/><text x="99.00" y="114.18" font-family="'Noto Sans CJK TC','Noto Sans TC','Microsoft JhengHei','PingFang TC','Heiti TC',sans-serif" font-size="12" fill="#6B7684" text-anchor="end" dominant-baseline="middle" font-weight="400">1100</text><text x="336.56" y="580.00" font-family="'Noto Sans CJK TC','Noto Sans TC','Microsoft JhengHei','PingFang TC','Heiti TC',sans-serif" font-size="13.5" fill="#1F2733" text-anchor="start" dominant-baseline="middle" font-weight="700">M<tspan dy="4.05" font-size="9.18">n</tspan><tspan dy="-4.05" font-size="13.5">（tf·m）</tspan></text><text x="46.17" y="80.00" font-family="'Noto Sans CJK TC','Noto Sans TC','Microsoft JhengHei','PingFang TC','Heiti TC',sans-serif" font-size="13.5" fill="#1F2733" text-anchor="start" dominant-baseline="middle" font-weight="700">P<tspan dy="4.05" font-size="9.18">n</tspan><tspan dy="-4.05" font-size="13.5">（tf）</tspan></text><polygon points="110.00,514.18 320.39,514.18 322.40,513.36 324.41,512.55 326.42,511.73 328.42,510.91 330.43,510.08 332.43,509.26 334.43,508.43 336.43,507.60 338.43,506.77 340.42,505.94 342.42,505.11 344.42,504.27 346.41,503.43 348.41,502.59 350.40,501.74 352.39,500.89 354.38,500.04 356.38,499.19 358.37,498.33 360.36,497.47 362.35,496.60 364.34,495.74 366.33,494.86 368.32,493.99 370.31,493.11 372.30,492.22 374.29,491.34 376.28,490.44 378.27,489.55 380.26,488.64 382.25,487.74 384.24,486.82 386.23,485.91 388.22,484.99 390.21,484.06 392.19,483.13 394.18,482.19 396.17,481.24 398.15,480.29 400.14,479.34 402.12,478.37 404.11,477.41 406.09,476.43 408.07,475.45 410.05,474.46 412.03,473.47 414.00,472.46 415.98,471.45 417.95,470.44 419.92,469.41 421.89,468.38 423.85,467.34 425.82,466.30 427.77,465.24 429.73,464.18 431.68,463.11 433.63,462.03 435.57,460.94 437.51,459.84 439.44,458.73 441.37,457.36 443.29,455.66 445.21,453.96 447.12,452.25 449.02,450.54 450.91,448.83 452.63,447.18 454.10,445.62 455.57,444.06 457.03,442.49 458.48,440.91 459.93,439.33 461.38,437.74 462.82,436.14 464.24,434.53 465.67,432.92 467.08,431.30 468.48,429.67 469.87,428.04 471.25,426.39 472.62,424.74 473.97,423.07 475.31,421.40 476.63,419.72 477.94,418.03 479.23,416.33 480.51,414.62 481.76,412.90 483.00,411.16 484.21,409.42 485.40,407.67 486.57,405.90 487.71,404.12 488.83,402.33 489.92,400.53 490.99,398.72 492.02,396.89 493.02,395.05 493.99,393.20 494.93,391.33 495.83,389.45 496.69,387.56 497.51,385.65 498.30,383.73 499.04,381.79 499.73,379.84 500.39,377.87 500.99,375.88 501.55,373.88 501.14,371.51 499.39,368.61 497.62,365.71 495.81,362.80 493.97,359.88 492.09,356.96 490.18,354.02 488.22,351.08 486.21,349.25 484.16,346.29 482.06,343.32 479.90,340.34 477.69,337.35 475.41,334.34 473.08,331.33 470.67,328.30 468.20,325.26 465.65,322.21 463.03,319.15 460.33,316.07 457.54,312.97 454.67,309.86 451.70,306.74 448.64,303.60 445.48,300.45 442.21,297.28 438.84,294.09 435.35,290.88 431.74,287.66 428.02,284.41 424.17,281.15 420.18,277.87 416.06,274.57 411.80,271.25 407.39,267.91 402.83,264.55 398.11,261.17 393.23,257.76 388.18,254.33 382.96,250.88 377.55,247.40 371.95,243.90 366.17,240.38 360.18,236.83 353.98,233.26 347.57,229.65 340.94,226.03 334.08,222.37 326.98,218.69 319.64,214.98 312.05,211.24 304.20,207.47 296.08,203.67 287.69,199.84 279.01,195.98 270.04,192.09 260.76,188.16 255.44,185.89 245.53,181.90 235.29,177.87 224.70,173.81 213.76,169.72 202.46,165.59 190.79,161.43 178.73,157.23 166.27,152.99 159.08,150.49 158.08,149.95 157.10,149.42 156.13,148.90 155.17,148.38 154.22,147.87 153.28,147.36 152.36,146.86 151.44,146.37 150.54,145.88 149.64,145.40 148.76,144.92 147.89,144.45 147.03,143.99 146.17,143.53 145.33,143.08 144.50,142.63 143.68,142.19 142.87,141.75 142.07,141.32 141.27,140.89 140.49,140.47 139.72,140.05 138.95,139.64 138.20,139.23 137.45,138.84 136.71,138.55 135.98,138.27 135.26,137.98 134.55,137.70 133.85,137.43 133.15,137.15 132.47,136.88 131.79,136.62 131.12,136.35 130.46,136.09 129.80,135.84 129.16,135.58 128.52,135.33 127.89,135.08 127.26,134.84 126.65,134.59 126.04,134.35 125.44,134.12 124.84,133.88 124.25,133.65 123.67,133.42 123.10,133.20 122.53,132.98 121.97,132.76 121.42,132.54 120.87,132.32 120.33,132.11 119.80,131.90 119.27,131.69 118.75,131.49 118.24,131.29 117.73,131.09 117.23,130.89 116.73,130.69 116.24,130.50 115.75,130.31 115.27,130.12 114.80,129.93 114.33,129.75 113.87,129.57 113.41,129.39 112.96,129.21 112.52,129.04 112.08,128.86 111.64,128.69 111.21,128.52 110.79,128.36 110.37,128.19 110.00,128.05 110.00,128.05 110.00,128.05 110.00,128.05 110.00,128.05 110.00,128.05 110.00,128.05 110.00,128.05 110.00,128.05 110.00,128.05 110.00,128.05" fill="rgba(29,78,216,0.18)" stroke="#1D4ED8" stroke-width="3.0" opacity="1.0"/><line x1="110.00" y1="205.27" x2="630.00" y2="205.27" stroke="#C0392B" stroke-width="2.0" stroke-linecap="round" stroke-dasharray="8 5" opacity="1.0"/><text x="543.58" y="191.27" font-family="'Noto Sans CJK TC','Noto Sans TC','Microsoft JhengHei','PingFang TC','Heiti TC',sans-serif" font-size="12.5" fill="#C0392B" text-anchor="start" dominant-baseline="middle" font-weight="700">0.80P<tspan dy="3.75" font-size="8.5">o</tspan><tspan dy="-3.75" font-size="12.5"> = 849 tf</tspan></text><text x="294.89" y="357.82" font-family="'Noto Sans CJK TC','Noto Sans TC','Microsoft JhengHei','PingFang TC','Heiti TC',sans-serif" font-size="15" fill="#1D4ED8" text-anchor="middle" dominant-baseline="middle" font-weight="700">安全區</text><circle cx="110.00" cy="128.05" r="6.4" fill="#B45309" stroke="#FFFFFF" stroke-width="2.0"/><text x="124.00" y="110.05" font-family="'Noto Sans CJK TC','Noto Sans TC','Microsoft JhengHei','PingFang TC','Heiti TC',sans-serif" font-size="12.5" fill="#B45309" text-anchor="start" dominant-baseline="middle" font-weight="700">① 純軸壓 P<tspan dy="3.75" font-size="8.5">o</tspan></text><circle cx="359.08" cy="236.19" r="6.4" fill="#B45309" stroke="#FFFFFF" stroke-width="2.0"/><text x="375.08" y="230.19" font-family="'Noto Sans CJK TC','Noto Sans TC','Microsoft JhengHei','PingFang TC','Heiti TC',sans-serif" font-size="12.5" fill="#B45309" text-anchor="start" dominant-baseline="middle" font-weight="700">② ε<tspan dy="3.75" font-size="8.5">t</tspan><tspan dy="-3.75" font-size="12.5"> = 0 (c = d</tspan><tspan dy="3.75" font-size="8.5">t</tspan><tspan dy="-3.75" font-size="12.5">)</tspan></text><circle cx="501.85" cy="372.70" r="6.4" fill="#B45309" stroke="#FFFFFF" stroke-width="2.0"/><text x="519.85" y="372.70" font-family="'Noto Sans CJK TC','Noto Sans TC','Microsoft JhengHei','PingFang TC','Heiti TC',sans-serif" font-size="12.5" fill="#B45309" text-anchor="start" dominant-baseline="middle" font-weight="700">③ 平衡點 c<tspan dy="3.75" font-size="8.5">b</tspan></text><circle cx="459.00" cy="440.35" r="6.4" fill="#B45309" stroke="#FFFFFF" stroke-width="2.0"/><text x="475.00" y="444.35" font-family="'Noto Sans CJK TC','Noto Sans TC','Microsoft JhengHei','PingFang TC','Heiti TC',sans-serif" font-size="12.5" fill="#B45309" text-anchor="start" dominant-baseline="middle" font-weight="700">④ 拉力控制界限 ε<tspan dy="3.75" font-size="8.5">t</tspan><tspan dy="-3.75" font-size="12.5">=0.005</tspan></text><circle cx="320.39" cy="514.18" r="6.4" fill="#B45309" stroke="#FFFFFF" stroke-width="2.0"/><text x="336.39" y="532.18" font-family="'Noto Sans CJK TC','Noto Sans TC','Microsoft JhengHei','PingFang TC','Heiti TC',sans-serif" font-size="12.5" fill="#B45309" text-anchor="start" dominant-baseline="middle" font-weight="700">⑤ 純彎矩 P<tspan dy="3.75" font-size="8.5">n</tspan><tspan dy="-3.75" font-size="12.5"> = 0</tspan></text><rect x="660" y="94" width="214" height="300" rx="12" fill="#F5F7FA" stroke="#E1E6ED" stroke-width="1.4"/><text x="767.00" y="116.00" font-family="'Noto Sans CJK TC','Noto Sans TC','Microsoft JhengHei','PingFang TC','Heiti TC',sans-serif" font-size="13.5" fill="#1F2733" text-anchor="middle" dominant-baseline="middle" font-weight="700">控制點數值</text><text x="674.00" y="144.00" font-family="'Noto Sans CJK TC','Noto Sans TC','Microsoft JhengHei','PingFang TC','Heiti TC',sans-serif" font-size="11.5" fill="#6B7684" text-anchor="start" dominant-baseline="middle" font-weight="400">點</text><text x="788.00" y="144.00" font-family="'Noto Sans CJK TC','Noto Sans TC','Microsoft JhengHei','PingFang TC','Heiti TC',sans-serif" font-size="11.5" fill="#6B7684" text-anchor="end" dominant-baseline="middle" font-weight="400">Pn (tf)</text><text x="860.00" y="144.00" font-family="'Noto Sans CJK TC','Noto Sans TC','Microsoft JhengHei','PingFang TC','Heiti TC',sans-serif" font-size="11.5" fill="#6B7684" text-anchor="end" dominant-baseline="middle" font-weight="400">Mn (tf·m)</text><text x="674.00" y="172.00" font-family="'Noto Sans CJK TC','Noto Sans TC','Microsoft JhengHei','PingFang TC','Heiti TC',sans-serif" font-size="12.5" fill="#1F2733" text-anchor="start" dominant-baseline="middle" font-weight="700">① P<tspan dy="3.75" font-size="8.5">o</tspan></text><text x="788.00" y="172.00" font-family="'Noto Sans CJK TC','Noto Sans TC','Microsoft JhengHei','PingFang TC','Heiti TC',sans-serif" font-size="12.5" fill="#1D4ED8" text-anchor="end" dominant-baseline="middle" font-weight="400">1061.9</text><text x="860.00" y="172.00" font-family="'Noto Sans CJK TC','Noto Sans TC','Microsoft JhengHei','PingFang TC','Heiti TC',sans-serif" font-size="12.5" fill="#2E7D6F" text-anchor="end" dominant-baseline="middle" font-weight="400">0.00</text><text x="674.00" y="202.00" font-family="'Noto Sans CJK TC','Noto Sans TC','Microsoft JhengHei','PingFang TC','Heiti TC',sans-serif" font-size="12.5" fill="#1F2733" text-anchor="start" dominant-baseline="middle" font-weight="700">② ε<tspan dy="3.75" font-size="8.5">t</tspan><tspan dy="-3.75" font-size="12.5">=0</tspan></text><text x="788.00" y="202.00" font-family="'Noto Sans CJK TC','Noto Sans TC','Microsoft JhengHei','PingFang TC','Heiti TC',sans-serif" font-size="12.5" fill="#1D4ED8" text-anchor="end" dominant-baseline="middle" font-weight="400">764.5</text><text x="860.00" y="202.00" font-family="'Noto Sans CJK TC','Noto Sans TC','Microsoft JhengHei','PingFang TC','Heiti TC',sans-serif" font-size="12.5" fill="#2E7D6F" text-anchor="end" dominant-baseline="middle" font-weight="400">64.67</text><text x="674.00" y="232.00" font-family="'Noto Sans CJK TC','Noto Sans TC','Microsoft JhengHei','PingFang TC','Heiti TC',sans-serif" font-size="12.5" fill="#1F2733" text-anchor="start" dominant-baseline="middle" font-weight="700">③ 平衡點</text><text x="788.00" y="232.00" font-family="'Noto Sans CJK TC','Noto Sans TC','Microsoft JhengHei','PingFang TC','Heiti TC',sans-serif" font-size="12.5" fill="#1D4ED8" text-anchor="end" dominant-baseline="middle" font-weight="400">389.1</text><text x="860.00" y="232.00" font-family="'Noto Sans CJK TC','Noto Sans TC','Microsoft JhengHei','PingFang TC','Heiti TC',sans-serif" font-size="12.5" fill="#2E7D6F" text-anchor="end" dominant-baseline="middle" font-weight="400">101.73</text><text x="674.00" y="262.00" font-family="'Noto Sans CJK TC','Noto Sans TC','Microsoft JhengHei','PingFang TC','Heiti TC',sans-serif" font-size="12.5" fill="#1F2733" text-anchor="start" dominant-baseline="middle" font-weight="700">④ ε<tspan dy="3.75" font-size="8.5">t</tspan><tspan dy="-3.75" font-size="12.5">=0.005</tspan></text><text x="788.00" y="262.00" font-family="'Noto Sans CJK TC','Noto Sans TC','Microsoft JhengHei','PingFang TC','Heiti TC',sans-serif" font-size="12.5" fill="#1D4ED8" text-anchor="end" dominant-baseline="middle" font-weight="400">203.0</text><text x="860.00" y="262.00" font-family="'Noto Sans CJK TC','Noto Sans TC','Microsoft JhengHei','PingFang TC','Heiti TC',sans-serif" font-size="12.5" fill="#2E7D6F" text-anchor="end" dominant-baseline="middle" font-weight="400">90.61</text><text x="674.00" y="292.00" font-family="'Noto Sans CJK TC','Noto Sans TC','Microsoft JhengHei','PingFang TC','Heiti TC',sans-serif" font-size="12.5" fill="#1F2733" text-anchor="start" dominant-baseline="middle" font-weight="700">⑤ 純彎</text><text x="788.00" y="292.00" font-family="'Noto Sans CJK TC','Noto Sans TC','Microsoft JhengHei','PingFang TC','Heiti TC',sans-serif" font-size="12.5" fill="#1D4ED8" text-anchor="end" dominant-baseline="middle" font-weight="400">0.0</text><text x="860.00" y="292.00" font-family="'Noto Sans CJK TC','Noto Sans TC','Microsoft JhengHei','PingFang TC','Heiti TC',sans-serif" font-size="12.5" fill="#2E7D6F" text-anchor="end" dominant-baseline="middle" font-weight="400">54.62</text><line x1="674.00" y1="316.00" x2="860.00" y2="316.00" stroke="#E1E6ED" stroke-width="1.2" stroke-linecap="round" opacity="1.0"/><text x="674.00" y="336.00" font-family="'Noto Sans CJK TC','Noto Sans TC','Microsoft JhengHei','PingFang TC','Heiti TC',sans-serif" font-size="12" fill="#6B7684" text-anchor="start" dominant-baseline="middle" font-weight="400">最大 M / 純彎 M</text><text x="860.00" y="336.00" font-family="'Noto Sans CJK TC','Noto Sans TC','Microsoft JhengHei','PingFang TC','Heiti TC',sans-serif" font-size="13" fill="#B45309" text-anchor="end" dominant-baseline="middle" font-weight="700">1.86 倍</text><text x="450.00" y="598.00" font-family="'Noto Sans CJK TC','Noto Sans TC','Microsoft JhengHei','PingFang TC','Heiti TC',sans-serif" font-size="13.5" fill="#6B7684" text-anchor="middle" dominant-baseline="middle" font-weight="400">落在曲線內側 = 安全；落在外側 = 斷面不足。曲線本身與軸力大小無關，是斷面的身分證。</text></svg>