<svg xmlns="http://www.w3.org/2000/svg" width="1120" height="642" viewBox="0 0 1120 642" xmlns:c2pa="http://c2pa.org/manifest"><metadata><c2pa:manifest>AAAWgmp1bWIAAAAeanVtZGMycGEAEQAQgAAAqgA4m3EDYzJwYQAAABZcanVtYgAAAEdqdW1kYzJtYQARABCAAACqADibcQN1cm46YzJwYTpjYzUxNTdlMS1hMzNmLTQ4N2QtODFiMC1hMmY3ODcwMjNlZmQAAAADl2p1bWIAAAApanVtZGMyYXMAEQAQgAAAqgA4m3EDYzJwYS5hc3NlcnRpb25zAAAAALxqdW1iAAAARGp1bWRjYm9yABEAEIAAAKoAOJtxE2MycGEuaW5ncmVkaWVudC52MwAAAAAYYzJzaBi1mAC7+FfrgfC74VMeRbQAAABwY2JvcqNpZGM6Zm9ybWF0bWltYWdlL3N2Zyt4bWxqaW5zdGFuY2VJRHgseG1wOmlpZDo1NjdjZmM3Mi02Y2I5LTQzNmQtOGFkZS1iNjYxNGJlYTNjOWVscmVsYXRpb25zaGlwaHBhcmVudE9mAAAB4mp1bWIAAABBanVtZGNib3IAEQAQgAAAqgA4m3ETYzJwYS5hY3Rpb25zLnYyAAAAABhjMnNofC1JoGEqJi9WYdRHlDCqgQAAAZljYm9yomdhY3Rpb25zgqJmYWN0aW9ua2MycGEub3BlbmVkanBhcmFtZXRlcnOha2luZ3JlZGllbnRzgaJjdXJseC1zZWxmI2p1bWJmPWMycGEuYXNzZXJ0aW9ucy9jMnBhLmluZ3JlZGllbnQudjNkaGFzaFggQBTuxwpgd7pahcsJiVrjakSvd4pwTvvbJHCy9gB+/QWkZmFjdGlvbngdY29tLmFudGhyb3BpYy5jbGF1ZGUucHJvdmlkZWRqcGFyYW1ldGVyc6F4H2NvbS5hbnRocm9waWMub3JpZ2luLWNvbmZpZGVuY2VndW5rbm93bmtkZXNjcmlwdGlvbnhmQ2xhdWRlIHByb3ZpZGVkIHRoaXMgZmlsZSBhdCB0aGUgcmVxdWVzdCBvZiBhIHVzZXIgYW5kIG1heSBoYXZlIGNyZWF0ZWQgb3IgbW9kaWZpZWQgdGhlIGZpbGUgY29udGVudHMubXNvZnR3YXJlQWdlbnShZG5hbWVmQ2xhdWRlcmFsbEFjdGlvbnNJbmNsdWRlZPUAAADIanVtYgAAAEBqdW1kY2JvcgARABCAAACqADibcRNjMnBhLmhhc2guZGF0YQAAAAAYYzJzaBbjCbhPZhEJhk2CJUX7CqAAAACAY2JvcqVjYWxnZnNoYTI1NmNwYWRNAAAAAAAAAAAAAAAAAGRoYXNoWCB0xw3xRm16kufTOpB580KYp+SrA3ipUEI8aQWV/ZhwnmRuYW1lbmp1bWJmIG1hbmlmZXN0amV4Y2x1c2lvbnOBomVzdGFydBiYZmxlbmd0aBkeBAAAAj5qdW1iAAAAJ2p1bWRjMmNsABEAEIAAAKoAOJtxA2MycGEuY2xhaW0udjIAAAACD2Nib3KlY2FsZ2ZzaGEyNTZpc2lnbmF0dXJleE1zZWxmI2p1bWJmPS9jMnBhL3VybjpjMnBhOmNjNTE1N2UxLWEzM2YtNDg3ZC04MWIwLWEyZjc4NzAyM2VmZC9jMnBhLnNpZ25hdHVyZWppbnN0YW5jZUlEeCx4bXA6aWlkOjYxOTRlYTgzLTc1YjktNGNlZi1hMWE2LTYyYjAxMzY0MGEwMnJjcmVhdGVkX2Fzc2VydGlvbnODomN1cmx4LXNlbGYjanVtYmY9YzJwYS5hc3NlcnRpb25zL2MycGEuaW5ncmVkaWVudC52M2RoYXNoWCBAFO7HCmB3ulqFywmJWuNqRK93inBO+9skcLL2AH79BaJjdXJseCpzZWxmI2p1bWJmPWMycGEuYXNzZXJ0aW9ucy9jMnBhLmFjdGlvbnMudjJkaGFzaFggcU9U+YfdeHVb7NB2iguXPt6NGDkTNctw4ULa8a1MlC2iY3VybHgpc2VsZiNqdW1iZj1jMnBhLmFzc2VydGlvbnMvYzJwYS5oYXNoLmRhdGFkaGFzaFggDbnfl/YiLEnP5A9rp4aj67CvtFjYSlUM4Y2WzpefBkN0Y2xhaW1fZ2VuZXJhdG9yX2luZm+jZG5hbWVvQW50aHJvcGljIEZpbGVzZ3ZlcnNpb25lMS4wLjBrc3BlY1ZlcnNpb25lMi40LjAAABA4anVtYgAAAChqdW1kYzJjcwARABCAAACqADibcQNjMnBhLnNpZ25hdHVyZQAAABAIY2JvctKEWQISogEmGCFZAgowggIGMIIBjaADAgECAhRA5aAK7sI50L64g/oGQgU9Z1UTADAKBggqhkjOPQQDAzBJMRcwFQYDVQQKEw5BbnRocm9waWMsIFBCQzEuMCwGA1UEAxMlQW50aHJvcGljIENvbnRlbnQgQ3JlZGVudGlhbHMgUm9vdCBDQTAeFw0yNjA4MDcxODQzNTZaFw0yODA4MDYxOTQzNTZaMEQxFzAVBgNVBAoTDkFudGhyb3BpYywgUEJDMSkwJwYDVQQDEyBBbnRocm9waWMgQ2xhdWRlIENvbnRlbnQgU2lnbmluZzBZMBMGByqGSM49AgEGCCqGSM49AwEHA0IABJh6CmvLUBgFFNU0vUKlOVtE6djd17L5SuwX0LemFisBM3dkd/3cyjxFA3Qo5S46fX0/ihY0VZ7mfb9KF703t5OjWDBWMA4GA1UdDwEB/wQEAwIHgDAVBgNVHSUEDjAMBgorBgEEAYPoXgIBMAwGA1UdEwEB/wQCMAAwHwYDVR0jBBgwFoAUzlHiBIFOZFsj+OPEz5o+nMHXXMIwCgYIKoZIzj0EAwMDZwAwZAIwMXMdFJ4BetLLVY7ORuE9noqbbAZOZn/aArXyTwFAZfKrPzxF2vPoJNf1+UCdg1XGAjBwX1zd9WGqYkqmL5SFqw1QySjr1zJfpJM9+1rdDwSPLMOPOjKuiXjoU/pUUeG9RwmhY3BhZFkNngAAAAAAAAAAAAAAAAAAAAAAAAAAAAAAAAAAAAAAAAAAAAAAAAAAAAAAAAAAAAAAAAAAAAAAAAAAAAAAAAAAAAAAAAAAAAAAAAAAAAAAAAAAAAAAAAAAAAAAAAAAAAAAAAAAAAAAAAAAAAAAAAAAAAAAAAAAAAAAAAAAAAAAAAAAAAAAAAAAAAAAAAAAAAAAAAAAAAAAAAAAAAAAAAAAAAAAAAAAAAAAAAAAAAAAAAAAAAAAAAAAAAAAAAAAAAAAAAAAAAAAAAAAAAAAAAAAAAAAAAAAAAAAAAAAAAAAAAAAAAAAAAAAAAAAAAAAAAAAAAAAAAAAAAAAAAAAAAAAAAAAAAAAAAAAAAAAAAAAAAAAAAAAAAAAAAAAAAAAAAAAAAAAAAAAAAAAAAAAAAAAAAAAAAAAAAAAAAAAAAAAAAAAAAAAAAAAAAAAAAAAAAAAAAAAAAAAAAAAAAAAAAAAAAAAAAAAAAAAAAAAAAAAAAAAAAAAAAAAAAAAAAAAAAAAAAAAAAAAAAAAAAAAAAAAAAAAAAAAAAAAAAAAAAAAAAAAAAAAAAAAAAAAAAAAAAAAAAAAAAAAAAAAAAAAAAAAAAAAAAAAAAAAAAAAAAAAAAAAAAAAAAAAAAAAAAAAAAAAAAAAAAAAAAAAAAAAAAAAAAAAAAAAAAAAAAAAAAAAAAAAAAAAAAAAAAAAAAAAAAAAAAAAAAAAAAAAAAAAAAAAAAAAAAAAAAAAAAAAAAAAAAAAAAAAAAAAAAAAAAAAAAAAAAAAAAAAAAAAAAAAAAAAAAAAAAAAAAAAAAAAAAAAAAAAAAAAAAAAAAAAAAAAAAAAAAAAAAAAAAAAAAAAAAAAAAAAAAAAAAAAAAAAAAAAAAAAAAAAAAAAAAAAAAAAAAAAAAAAAAAAAAAAAAAAAAAAAAAAAAAAAAAAAAAAAAAAAAAAAAAAAAAAAAAAAAAAAAAAAAAAAAAAAAAAAAAAAAAAAAAAAAAAAAAAAAAAAAAAAAAAAAAAAAAAAAAAAAAAAAAAAAAAAAAAAAAAAAAAAAAAAAAAAAAAAAAAAAAAAAAAAAAAAAAAAAAAAAAAAAAAAAAAAAAAAAAAAAAAAAAAAAAAAAAAAAAAAAAAAAAAAAAAAAAAAAAAAAAAAAAAAAAAAAAAAAAAAAAAAAAAAAAAAAAAAAAAAAAAAAAAAAAAAAAAAAAAAAAAAAAAAAAAAAAAAAAAAAAAAAAAAAAAAAAAAAAAAAAAAAAAAAAAAAAAAAAAAAAAAAAAAAAAAAAAAAAAAAAAAAAAAAAAAAAAAAAAAAAAAAAAAAAAAAAAAAAAAAAAAAAAAAAAAAAAAAAAAAAAAAAAAAAAAAAAAAAAAAAAAAAAAAAAAAAAAAAAAAAAAAAAAAAAAAAAAAAAAAAAAAAAAAAAAAAAAAAAAAAAAAAAAAAAAAAAAAAAAAAAAAAAAAAAAAAAAAAAAAAAAAAAAAAAAAAAAAAAAAAAAAAAAAAAAAAAAAAAAAAAAAAAAAAAAAAAAAAAAAAAAAAAAAAAAAAAAAAAAAAAAAAAAAAAAAAAAAAAAAAAAAAAAAAAAAAAAAAAAAAAAAAAAAAAAAAAAAAAAAAAAAAAAAAAAAAAAAAAAAAAAAAAAAAAAAAAAAAAAAAAAAAAAAAAAAAAAAAAAAAAAAAAAAAAAAAAAAAAAAAAAAAAAAAAAAAAAAAAAAAAAAAAAAAAAAAAAAAAAAAAAAAAAAAAAAAAAAAAAAAAAAAAAAAAAAAAAAAAAAAAAAAAAAAAAAAAAAAAAAAAAAAAAAAAAAAAAAAAAAAAAAAAAAAAAAAAAAAAAAAAAAAAAAAAAAAAAAAAAAAAAAAAAAAAAAAAAAAAAAAAAAAAAAAAAAAAAAAAAAAAAAAAAAAAAAAAAAAAAAAAAAAAAAAAAAAAAAAAAAAAAAAAAAAAAAAAAAAAAAAAAAAAAAAAAAAAAAAAAAAAAAAAAAAAAAAAAAAAAAAAAAAAAAAAAAAAAAAAAAAAAAAAAAAAAAAAAAAAAAAAAAAAAAAAAAAAAAAAAAAAAAAAAAAAAAAAAAAAAAAAAAAAAAAAAAAAAAAAAAAAAAAAAAAAAAAAAAAAAAAAAAAAAAAAAAAAAAAAAAAAAAAAAAAAAAAAAAAAAAAAAAAAAAAAAAAAAAAAAAAAAAAAAAAAAAAAAAAAAAAAAAAAAAAAAAAAAAAAAAAAAAAAAAAAAAAAAAAAAAAAAAAAAAAAAAAAAAAAAAAAAAAAAAAAAAAAAAAAAAAAAAAAAAAAAAAAAAAAAAAAAAAAAAAAAAAAAAAAAAAAAAAAAAAAAAAAAAAAAAAAAAAAAAAAAAAAAAAAAAAAAAAAAAAAAAAAAAAAAAAAAAAAAAAAAAAAAAAAAAAAAAAAAAAAAAAAAAAAAAAAAAAAAAAAAAAAAAAAAAAAAAAAAAAAAAAAAAAAAAAAAAAAAAAAAAAAAAAAAAAAAAAAAAAAAAAAAAAAAAAAAAAAAAAAAAAAAAAAAAAAAAAAAAAAAAAAAAAAAAAAAAAAAAAAAAAAAAAAAAAAAAAAAAAAAAAAAAAAAAAAAAAAAAAAAAAAAAAAAAAAAAAAAAAAAAAAAAAAAAAAAAAAAAAAAAAAAAAAAAAAAAAAAAAAAAAAAAAAAAAAAAAAAAAAAAAAAAAAAAAAAAAAAAAAAAAAAAAAAAAAAAAAAAAAAAAAAAAAAAAAAAAAAAAAAAAAAAAAAAAAAAAAAAAAAAAAAAAAAAAAAAAAAAAAAAAAAAAAAAAAAAAAAAAAAAAAAAAAAAAAAAAAAAAAAAAAAAAAAAAAAAAAAAAAAAAAAAAAAAAAAAAAAAAAAAAAAAAAAAAAAAAAAAAAAAAAAAAAAAAAAAAAAAAAAAAAAAAAAAAAAAAAAAAAAAAAAAAAAAAAAAAAAAAAAAAAAAAAAAAAAAAAAAAAAAAAAAAAAAAAAAAAAAAAAAAAAAAAAAAAAAAAAAAAAAAAAAAAAAAAAAAAAAAAAAAAAAAAAAAAAAAAAAAAAAAAAAAAAAAAAAAAAAAAAAAAAAAAAAAAAAAAAAAAAAAAAAAAAAAAAAAAAAAAAAAAAAAAAAAAAAAAAAAAAAAAAAAAAAAAAAAAAAAAAAAAAAAAAAAAAAAAAAAAAAAAAAAAAAAAAAAAAAAAAAAAAAAAAAAAAAAAAAAAAAAAAAAAAAAAAAAAAAAAAAAAAAAAAAAAAAAAAAAAAAAAAAAAAAAAAAAAAAAAAAAAAAAAAAAAAAAAAAAAAAAAAAAAAAAAAAAAAAAAAAAAAAAAAAAAAAAAAAAAAAAAAAAAAAAAAAAAAAAAAAAAAAAAAAAAAAAAAAAAAAAAAAAAAAAAAAAAAAAAAAAAAAAAAAAAAAAAAAAAAAAAAAAAAAAAAAAAAAAAAAAAAAAAAAAAAAAAAAAAAAAAAAAAAAAAAAAAAAAAAAAAAAAAAAAAAAAAAAAAAAAAAAAAAAAAAAAAAAAAAAAAAAAAAAAAAAAAAAAAAAAAAAAAAAAAAAAAAAAAAAAAAAAAAAAAAAAAAAAAAAAAAAAAAAAAAAAAAAAAAAAAAAAAAAAAAAAAAAAAAAAAAAAAAAAAAAAAAAAAAAAAAAAAAAAAAAAAAAAAAAAAAAAAAAAAAAAAAAAAAAAAAAAAAAAAAAAAAAAAAAAAAAAAAAAAAAAAAAAAAAAAAAAAAAAAAAAAAAAAAAAAAAAAAAAAAAAAAAAAAAAAAAAAAAAAAAAAAAAAAAAAAAAAAAAAAAAAAAAAAAAAAAAAAAAAAAAAAAAAAAAAAAAAAAAAAAAAAAAAAAAAAAAAAAAAAAAAAAAAAAAAAAAAAAAAAAAAAAAAAAAAAAAAAAAAAAAAAAAAAAAAAAAAAAAAAAAAAAAAAAAAAAAAAAAAAAAAAAAAAAAAAAAAAAAAAAAAAAAAAAAAAAAAAAAAAAAAAAAAAAAAAAAAAAAAAAAAAAAAAAAAAAAAAAAAAAAAAAAAAAAAAAAAAAAAAAAAAAAAAAAAAAAAAAAAAAAAAAAAAAAAAAAAAAAAAAAAAAAAAAAAAAAAAAAAAAAAAAAAAAAAAAAAAAAAAAAAAAAAAAAAAAAAAAAAAAAAAAAAAAAAAAAAAAAAAAAAAAAAAAAAAAAAAAAAAAAAAAAAAAAAAAAAAAAAAAAAAAAAAAAAAAAAAAAAAAAAAAAAAAAAAAAAAAAAAAAAAAAAAAAAAAAAAAAAAAAAAAAAAAAAAAAAAAAAAAAAAAAAAAAAAAAAAAAAAAAAAAAAAAAAAAAAAAAAAAAAAAAAAAAAAAAAAAAAAAAAAAAAAAAAAAAAAAAAAAAAAAAAAAAAAAAAAAAAAAAAAAAAAAAAAAAAAAAAAAAAAAAAAAAAAAAAAAAAAAAAAAAAAAAAAAAAAAAAAAAAAAAAAAAAAAAAAAAAAAAAAAAAAAAAAAAAAAAAAAAAAAAAAAAAAAAAAAAAAAAAAAAAAAAAAAAAAAAAAAAAAAAAAAAAAAAAAAAAAAAAAAAAAAAAAAAAAAAAAAAAAAAAAAAAAAAAAAAAAAAAAAAAAAAAAAAAAAAAAAAAAAAAAAAAAAAAAAAAAAAAAAAAAAAAAAAAAAAAAAAAAAAAAAAAAAAAAAAAAAAAAAAAAAAAAAAAAAAAAAAAAAAAAAAAAAAAAAAAAAAAAAAAAPZYQHyoTFiL5FfD3VPR0lV1YyahKUxFr8GxR5SLbxQb3Z+9ZuNsPVu/p6U0cqbvOMLFjpjrjid+JODFzLIdN5D9lFg=</c2pa:manifest></metadata><defs><clipPath id="sdclip0"><rect x="0" y="0" width="560" height="520"/></clipPath><clipPath id="sdclip1"><rect x="0" y="0" width="560" height="520"/></clipPath></defs><rect width="1120" height="642" fill="#FFFFFF"/><text x="560.0" y="34" font-family="'Noto Sans CJK TC','Noto Sans TC','Microsoft JhengHei','PingFang TC','Heiti TC',sans-serif" font-size="17.5" fill="#1F2733" text-anchor="middle" font-weight="700">「掃描 c」是什麼意思：一條應變直線換一個 (Pn, Mn) 點</text><text x="560.0" y="58" font-family="'Noto Sans CJK TC','Noto Sans TC','Microsoft JhengHei','PingFang TC','Heiti TC',sans-serif" font-size="13" fill="#6B7684" text-anchor="middle">① 純彎　② 拉力控制界限　③ 平衡點　④ εt = 0　⑤ 全斷面受壓</text><g transform="translate(0,76)" clip-path="url(#sdclip0)"><rect x="6" y="6" width="548" height="508" rx="14" fill="#F5F7FA" stroke="#E1E6ED" stroke-width="1.2"/><text x="280.00" y="32.00" font-family="'Noto Sans CJK TC','Noto Sans TC','Microsoft JhengHei','PingFang TC','Heiti TC',sans-serif" font-size="15.5" fill="#1F2733" text-anchor="middle" dominant-baseline="middle" font-weight="700">同一個斷面，換不同的 c</text><text x="280.00" y="55.00" font-family="'Noto Sans CJK TC','Noto Sans TC','Microsoft JhengHei','PingFang TC','Heiti TC',sans-serif" font-size="12.5" fill="#6B7684" text-anchor="middle" dominant-baseline="middle" font-weight="400">每一條直線 = 一種中性軸位置</text><rect x="54" y="126" width="210.0" height="210" rx="6" fill="#EDF1F6" stroke="#3F4A5A" stroke-width="2.6"/><circle cx="91.80" cy="147.00" r="5.0" fill="#3F4A5A" stroke="#FFFFFF" stroke-width="1.4"/><circle cx="159.00" cy="147.00" r="5.0" fill="#3F4A5A" stroke="#FFFFFF" stroke-width="1.4"/><circle cx="226.20" cy="147.00" r="5.0" fill="#3F4A5A" stroke="#FFFFFF" stroke-width="1.4"/><circle cx="91.80" cy="231.00" r="5.0" fill="#3F4A5A" stroke="#FFFFFF" stroke-width="1.4"/><circle cx="226.20" cy="231.00" r="5.0" fill="#3F4A5A" stroke="#FFFFFF" stroke-width="1.4"/><circle cx="91.80" cy="315.00" r="5.0" fill="#3F4A5A" stroke="#FFFFFF" stroke-width="1.4"/><circle cx="159.00" cy="315.00" r="5.0" fill="#3F4A5A" stroke="#FFFFFF" stroke-width="1.4"/><circle cx="226.20" cy="315.00" r="5.0" fill="#3F4A5A" stroke="#FFFFFF" stroke-width="1.4"/><line x1="380.00" y1="112.00" x2="380.00" y2="350.00" stroke="#C3CAD5" stroke-width="2" stroke-linecap="round" stroke-dasharray="5 4" opacity="1.0"/><polyline points="456.00,126.00 269.80,336.00" fill="none" stroke="#C0392B" stroke-width="2.6" stroke-linecap="round" stroke-linejoin="round" opacity="1.0"/><circle cx="380.00" cy="156.13" r="4.6" fill="#C0392B" stroke="#FFFFFF" stroke-width="1.5"/><text x="259.80" y="350.00" font-family="'Noto Sans CJK TC','Noto Sans TC','Microsoft JhengHei','PingFang TC','Heiti TC',sans-serif" font-size="13.5" fill="#C0392B" text-anchor="middle" dominant-baseline="middle" font-weight="700">①</text><polyline points="456.00,126.00 269.80,336.00" fill="none" stroke="#2E7D6F" stroke-width="2.6" stroke-linecap="round" stroke-linejoin="round" opacity="1.0"/><circle cx="380.00" cy="196.88" r="4.6" fill="#2E7D6F" stroke="#FFFFFF" stroke-width="1.5"/><text x="259.80" y="350.00" font-family="'Noto Sans CJK TC','Noto Sans TC','Microsoft JhengHei','PingFang TC','Heiti TC',sans-serif" font-size="13.5" fill="#2E7D6F" text-anchor="middle" dominant-baseline="middle" font-weight="700">②</text><polyline points="456.00,126.00 313.60,336.00" fill="none" stroke="#B45309" stroke-width="2.6" stroke-linecap="round" stroke-linejoin="round" opacity="1.0"/><circle cx="380.00" cy="238.08" r="4.6" fill="#B45309" stroke="#FFFFFF" stroke-width="1.5"/><text x="303.60" y="350.00" font-family="'Noto Sans CJK TC','Noto Sans TC','Microsoft JhengHei','PingFang TC','Heiti TC',sans-serif" font-size="13.5" fill="#B45309" text-anchor="middle" dominant-baseline="middle" font-weight="700">③</text><polyline points="456.00,126.00 371.56,336.00" fill="none" stroke="#1D4ED8" stroke-width="2.6" stroke-linecap="round" stroke-linejoin="round" opacity="1.0"/><circle cx="380.00" cy="315.00" r="4.6" fill="#1D4ED8" stroke="#FFFFFF" stroke-width="1.5"/><text x="361.56" y="350.00" font-family="'Noto Sans CJK TC','Noto Sans TC','Microsoft JhengHei','PingFang TC','Heiti TC',sans-serif" font-size="13.5" fill="#1D4ED8" text-anchor="middle" dominant-baseline="middle" font-weight="700">④</text><polyline points="456.00,126.00 403.22,336.00" fill="none" stroke="#3F4A5A" stroke-width="2.6" stroke-linecap="round" stroke-linejoin="round" opacity="1.0"/><text x="393.22" y="350.00" font-family="'Noto Sans CJK TC','Noto Sans TC','Microsoft JhengHei','PingFang TC','Heiti TC',sans-serif" font-size="13.5" fill="#3F4A5A" text-anchor="middle" dominant-baseline="middle" font-weight="700">⑤</text><line x1="266.00" y1="126.00" x2="467.40" y2="126.00" stroke="#6B7684" stroke-width="1.4" stroke-linecap="round" opacity="1.0"/><circle cx="456.00" cy="126.00" r="6.4" fill="#C0392B" stroke="#FFFFFF" stroke-width="2.0"/><text x="389.66" y="106.00" font-family="'Latin Modern Math','Cambria Math','Times New Roman','Nimbus Roman',serif" font-size="12.5" fill="#C0392B" text-anchor="start" dominant-baseline="middle" font-weight="700" font-style="italic">ε<tspan dy="3.75" font-size="8.5">cu</tspan><tspan dy="-3.75" font-size="12.5">=0.003</tspan></text><text x="280.00" y="462.00" font-family="'Noto Sans CJK TC','Noto Sans TC','Microsoft JhengHei','PingFang TC','Heiti TC',sans-serif" font-size="12.5" fill="#C0392B" text-anchor="middle" dominant-baseline="middle" font-weight="700">所有直線都繞著頂面這一點轉 —— 這就是「掃描」的支點</text><text x="467.40" y="108.00" font-family="'Noto Sans CJK TC','Noto Sans TC','Microsoft JhengHei','PingFang TC','Heiti TC',sans-serif" font-size="12.5" fill="#1D4ED8" text-anchor="middle" dominant-baseline="middle" font-weight="700">壓</text><text x="278.00" y="108.00" font-family="'Noto Sans CJK TC','Noto Sans TC','Microsoft JhengHei','PingFang TC','Heiti TC',sans-serif" font-size="12.5" fill="#C0392B" text-anchor="middle" dominant-baseline="middle" font-weight="700">拉</text><text x="280.00" y="486.00" font-family="'Noto Sans CJK TC','Noto Sans TC','Microsoft JhengHei','PingFang TC','Heiti TC',sans-serif" font-size="12.5" fill="#6B7684" text-anchor="middle" dominant-baseline="middle" font-weight="400">中性軸愈深（c 愈大），斷面受壓的比例愈高</text></g><g transform="translate(560,76)" clip-path="url(#sdclip1)"><rect x="6" y="6" width="548" height="508" rx="14" fill="#F5F7FA" stroke="#E1E6ED" stroke-width="1.2"/><text x="280.00" y="32.00" font-family="'Noto Sans CJK TC','Noto Sans TC','Microsoft JhengHei','PingFang TC','Heiti TC',sans-serif" font-size="15.5" fill="#1F2733" text-anchor="middle" dominant-baseline="middle" font-weight="700">每一條直線 → 圖上一個點</text><text x="280.00" y="55.00" font-family="'Noto Sans CJK TC','Noto Sans TC','Microsoft JhengHei','PingFang TC','Heiti TC',sans-serif" font-size="12.5" fill="#6B7684" text-anchor="middle" dominant-baseline="middle" font-weight="400">把所有點連起來就是 P-M 互制圖</text><rect x="96" y="100" width="380" height="330" rx="8" fill="#FFFFFF" stroke="#E1E6ED" stroke-width="1.4"/><line x1="96.00" y1="100.00" x2="96.00" y2="430.00" stroke="#E1E6ED" stroke-width="1.0" stroke-linecap="round" stroke-dasharray="4 4" opacity="1.0"/><line x1="96.00" y1="430.00" x2="96.00" y2="436.00" stroke="#6B7684" stroke-width="1.4" stroke-linecap="round" opacity="1.0"/><text x="96.00" y="450.00" font-family="'Noto Sans CJK TC','Noto Sans TC','Microsoft JhengHei','PingFang TC','Heiti TC',sans-serif" font-size="12" fill="#6B7684" text-anchor="middle" dominant-baseline="middle" font-weight="400">0</text><line x1="212.92" y1="100.00" x2="212.92" y2="430.00" stroke="#E1E6ED" stroke-width="1.0" stroke-linecap="round" stroke-dasharray="4 4" opacity="1.0"/><line x1="212.92" y1="430.00" x2="212.92" y2="436.00" stroke="#6B7684" stroke-width="1.4" stroke-linecap="round" opacity="1.0"/><text x="212.92" y="450.00" font-family="'Noto Sans CJK TC','Noto Sans TC','Microsoft JhengHei','PingFang TC','Heiti TC',sans-serif" font-size="12" fill="#6B7684" text-anchor="middle" dominant-baseline="middle" font-weight="400">40</text><line x1="329.85" y1="100.00" x2="329.85" y2="430.00" stroke="#E1E6ED" stroke-width="1.0" stroke-linecap="round" stroke-dasharray="4 4" opacity="1.0"/><line x1="329.85" y1="430.00" x2="329.85" y2="436.00" stroke="#6B7684" stroke-width="1.4" stroke-linecap="round" opacity="1.0"/><text x="329.85" y="450.00" font-family="'Noto Sans CJK TC','Noto Sans TC','Microsoft JhengHei','PingFang TC','Heiti TC',sans-serif" font-size="12" fill="#6B7684" text-anchor="middle" dominant-baseline="middle" font-weight="400">80</text><line x1="446.77" y1="100.00" x2="446.77" y2="430.00" stroke="#E1E6ED" stroke-width="1.0" stroke-linecap="round" stroke-dasharray="4 4" opacity="1.0"/><line x1="446.77" y1="430.00" x2="446.77" y2="436.00" stroke="#6B7684" stroke-width="1.4" stroke-linecap="round" opacity="1.0"/><text x="446.77" y="450.00" font-family="'Noto Sans CJK TC','Noto Sans TC','Microsoft JhengHei','PingFang TC','Heiti TC',sans-serif" font-size="12" fill="#6B7684" text-anchor="middle" dominant-baseline="middle" font-weight="400">120</text><line x1="96.00" y1="430.00" x2="476.00" y2="430.00" stroke="#E1E6ED" stroke-width="1.0" stroke-linecap="round" stroke-dasharray="4 4" opacity="1.0"/><line x1="90.00" y1="430.00" x2="96.00" y2="430.00" stroke="#6B7684" stroke-width="1.4" stroke-linecap="round" opacity="1.0"/><text x="85.00" y="430.00" font-family="'Noto Sans CJK TC','Noto Sans TC','Microsoft JhengHei','PingFang TC','Heiti TC',sans-serif" font-size="12" fill="#6B7684" text-anchor="end" dominant-baseline="middle" font-weight="400">0</text><line x1="96.00" y1="343.91" x2="476.00" y2="343.91" stroke="#E1E6ED" stroke-width="1.0" stroke-linecap="round" stroke-dasharray="4 4" opacity="1.0"/><line x1="90.00" y1="343.91" x2="96.00" y2="343.91" stroke="#6B7684" stroke-width="1.4" stroke-linecap="round" opacity="1.0"/><text x="85.00" y="343.91" font-family="'Noto Sans CJK TC','Noto Sans TC','Microsoft JhengHei','PingFang TC','Heiti TC',sans-serif" font-size="12" fill="#6B7684" text-anchor="end" dominant-baseline="middle" font-weight="400">300</text><line x1="96.00" y1="257.83" x2="476.00" y2="257.83" stroke="#E1E6ED" stroke-width="1.0" stroke-linecap="round" stroke-dasharray="4 4" opacity="1.0"/><line x1="90.00" y1="257.83" x2="96.00" y2="257.83" stroke="#6B7684" stroke-width="1.4" stroke-linecap="round" opacity="1.0"/><text x="85.00" y="257.83" font-family="'Noto Sans CJK TC','Noto Sans TC','Microsoft JhengHei','PingFang TC','Heiti TC',sans-serif" font-size="12" fill="#6B7684" text-anchor="end" dominant-baseline="middle" font-weight="400">600</text><line x1="96.00" y1="171.74" x2="476.00" y2="171.74" stroke="#E1E6ED" stroke-width="1.0" stroke-linecap="round" stroke-dasharray="4 4" opacity="1.0"/><line x1="90.00" y1="171.74" x2="96.00" y2="171.74" stroke="#6B7684" stroke-width="1.4" stroke-linecap="round" opacity="1.0"/><text x="85.00" y="171.74" font-family="'Noto Sans CJK TC','Noto Sans TC','Microsoft JhengHei','PingFang TC','Heiti TC',sans-serif" font-size="12" fill="#6B7684" text-anchor="end" dominant-baseline="middle" font-weight="400">900</text><text x="252.56" y="474.00" font-family="'Noto Sans CJK TC','Noto Sans TC','Microsoft JhengHei','PingFang TC','Heiti TC',sans-serif" font-size="13.5" fill="#1F2733" text-anchor="start" dominant-baseline="middle" font-weight="700">M<tspan dy="4.05" font-size="9.18">n</tspan><tspan dy="-4.05" font-size="13.5">（tf·m）</tspan></text><text x="32.17" y="84.00" font-family="'Noto Sans CJK TC','Noto Sans TC','Microsoft JhengHei','PingFang TC','Heiti TC',sans-serif" font-size="13.5" fill="#1F2733" text-anchor="start" dominant-baseline="middle" font-weight="700">P<tspan dy="4.05" font-size="9.18">n</tspan><tspan dy="-4.05" font-size="13.5">（tf）</tspan></text><polyline points="255.66,430.00 257.19,429.36 258.71,428.71 260.23,428.06 261.76,427.41 263.28,426.77 264.80,426.12 266.31,425.46 267.83,424.81 269.35,424.15 270.86,423.50 272.38,422.84 273.89,422.18 275.41,421.52 276.92,420.85 278.43,420.18 279.95,419.51 281.46,418.84 282.97,418.17 284.48,417.49 285.99,416.81 287.50,416.13 289.01,415.44 290.52,414.76 292.03,414.06 293.54,413.37 295.06,412.67 296.57,411.97 298.08,411.27 299.59,410.56 301.10,409.85 302.60,409.13 304.11,408.41 305.62,407.69 307.13,406.96 308.64,406.23 310.15,405.49 311.66,404.75 313.17,404.01 314.67,403.26 316.18,402.50 317.69,401.74 319.19,400.98 320.69,400.21 322.20,399.43 323.70,398.65 325.20,397.87 326.70,397.08 328.20,396.28 329.70,395.48 331.19,394.67 332.68,393.86 334.18,393.04 335.66,392.21 337.15,391.38 338.63,390.54 340.12,389.70 341.59,388.84 343.07,387.98 344.54,387.12 346.01,386.24 347.47,385.16 348.93,383.82 350.38,382.48 351.83,381.13 353.27,379.78 354.71,378.43 356.01,377.13 357.13,375.90 358.24,374.66 359.35,373.42 360.46,372.18 361.56,370.93 362.65,369.68 363.74,368.41 364.83,367.15 365.91,365.88 366.98,364.60 368.04,363.31 369.10,362.02 370.14,360.72 371.18,359.42 372.21,358.10 373.22,356.79 374.23,355.46 375.22,354.12 376.20,352.78 377.17,351.43 378.12,350.07 379.06,348.71 379.98,347.33 380.88,345.95 381.77,344.55 382.64,343.15 383.49,341.74 384.32,340.32 385.12,338.88 385.91,337.44 386.67,335.99 387.40,334.53 388.11,333.06 388.79,331.57 389.45,330.08 390.07,328.57 390.67,327.05 391.23,325.53 391.76,323.98 392.25,322.43 392.71,320.87 393.13,319.29 392.83,317.41 391.50,315.13 390.16,312.84 388.78,310.54 387.39,308.24 385.96,305.93 384.51,303.62 383.02,301.29 381.50,299.85 379.94,297.51 378.34,295.17 376.71,292.82 375.03,290.45 373.30,288.08 371.53,285.71 369.71,283.32 367.83,280.92 365.90,278.51 363.91,276.09 361.86,273.66 359.74,271.22 357.56,268.77 355.31,266.30 352.98,263.83 350.58,261.34 348.11,258.83 345.55,256.32 342.90,253.79 340.16,251.24 337.34,248.68 334.41,246.11 331.39,243.52 328.26,240.92 325.03,238.30 321.68,235.66 318.22,233.01 314.64,230.34 310.94,227.65 307.11,224.94 303.14,222.22 299.04,219.48 294.79,216.72 290.40,213.93 285.85,211.13 281.15,208.31 276.29,205.47 271.25,202.61 266.05,199.72 260.66,196.82 255.09,193.89 249.33,190.94 243.38,187.96 237.22,184.96 230.84,181.94 224.26,178.90 217.45,175.83 210.41,172.73 206.37,170.93 198.85,167.78 191.08,164.61 183.04,161.41 174.74,158.18 166.17,154.92 157.31,151.63 148.16,148.32 138.70,144.97 133.25,143.00 132.49,142.57 131.74,142.16 131.01,141.74 130.28,141.33 129.56,140.93 128.85,140.53 128.14,140.14 127.45,139.75 126.76,139.36 126.08,138.98 125.41,138.61 124.75,138.24 124.10,137.87 123.45,137.51 122.81,137.15 122.18,136.80 121.56,136.45 120.94,136.10 120.33,135.76 119.73,135.42 119.14,135.09 118.55,134.76 117.97,134.44 117.40,134.11 116.83,133.81 116.27,133.58 115.72,133.35 115.17,133.13 114.63,132.91 114.10,132.69 113.57,132.48 113.05,132.26 112.54,132.05 112.03,131.84 111.52,131.64 111.03,131.44 110.54,131.23 110.05,131.04 109.57,130.84 109.10,130.65 108.63,130.46 108.17,130.27 107.71,130.08 107.26,129.90 106.82,129.71 106.38,129.53 105.94,129.36 105.51,129.18 105.09,129.01 104.67,128.83 104.25,128.66 103.84,128.50 103.44,128.33 103.04,128.17 102.64,128.01 102.25,127.85 101.87,127.69 101.48,127.53 101.11,127.38 100.73,127.23 100.37,127.07 100.00,126.93 99.64,126.78 99.29,126.63 98.94,126.49 98.59,126.35 98.25,126.21 97.91,126.07 97.58,125.93 97.25,125.80 96.92,125.66 96.60,125.53 96.28,125.40 96.00,125.29 96.00,125.29 96.00,125.29 96.00,125.29 96.00,125.29 96.00,125.29 96.00,125.29 96.00,125.29 96.00,125.29 96.00,125.29 96.00,125.29" fill="none" stroke="#1D4ED8" stroke-width="2.8" stroke-linecap="round" stroke-linejoin="round" opacity="1.0"/><circle cx="255.66" cy="430.00" r="6.0" fill="#C0392B" stroke="#FFFFFF" stroke-width="1.8"/><text x="267.66" y="420.00" font-family="'Noto Sans CJK TC','Noto Sans TC','Microsoft JhengHei','PingFang TC','Heiti TC',sans-serif" font-size="13.5" fill="#C0392B" text-anchor="start" dominant-baseline="middle" font-weight="700">①</text><circle cx="360.85" cy="371.73" r="6.0" fill="#2E7D6F" stroke="#FFFFFF" stroke-width="1.8"/><text x="372.85" y="361.73" font-family="'Noto Sans CJK TC','Noto Sans TC','Microsoft JhengHei','PingFang TC','Heiti TC',sans-serif" font-size="13.5" fill="#2E7D6F" text-anchor="start" dominant-baseline="middle" font-weight="700">②</text><circle cx="393.36" cy="318.35" r="6.0" fill="#B45309" stroke="#FFFFFF" stroke-width="1.8"/><text x="405.36" y="308.35" font-family="'Noto Sans CJK TC','Noto Sans TC','Microsoft JhengHei','PingFang TC','Heiti TC',sans-serif" font-size="13.5" fill="#B45309" text-anchor="start" dominant-baseline="middle" font-weight="700">③</text><circle cx="285.02" cy="210.63" r="6.0" fill="#1D4ED8" stroke="#FFFFFF" stroke-width="1.8"/><text x="297.02" y="200.63" font-family="'Noto Sans CJK TC','Noto Sans TC','Microsoft JhengHei','PingFang TC','Heiti TC',sans-serif" font-size="13.5" fill="#1D4ED8" text-anchor="start" dominant-baseline="middle" font-weight="700">④</text><circle cx="121.94" cy="136.66" r="6.0" fill="#3F4A5A" stroke="#FFFFFF" stroke-width="1.8"/><text x="133.94" y="126.66" font-family="'Noto Sans CJK TC','Noto Sans TC','Microsoft JhengHei','PingFang TC','Heiti TC',sans-serif" font-size="13.5" fill="#3F4A5A" text-anchor="start" dominant-baseline="middle" font-weight="700">⑤</text><circle cx="96.00" cy="125.29" r="6.0" fill="#3F4A5A" stroke="#FFFFFF" stroke-width="1.8"/><text x="108.00" y="143.29" font-family="'Noto Sans CJK TC','Noto Sans TC','Microsoft JhengHei','PingFang TC','Heiti TC',sans-serif" font-size="12.5" fill="#3F4A5A" text-anchor="start" dominant-baseline="middle" font-weight="400">P<tspan dy="3.75" font-size="8.5">o</tspan></text></g><text x="560.0" y="620" font-family="'Noto Sans CJK TC','Noto Sans TC','Microsoft JhengHei','PingFang TC','Heiti TC',sans-serif" font-size="13.5" fill="#6B7684" text-anchor="middle">柱題所有計算都在做同一件事：假設一個 c，然後做兩次平衡。</text></svg>