<svg xmlns="http://www.w3.org/2000/svg" width="840" height="530" viewBox="0 0 840 530"><rect x="6" y="6" width="828" height="518" rx="14" fill="#F5F7FA" stroke="#E1E6ED" stroke-width="1.2"/><text x="298.53" y="32.00" font-family="'Noto Sans CJK TC','Noto Sans TC','Microsoft JhengHei','PingFang TC','Heiti TC',sans-serif" font-size="15.5" fill="#1F2733" text-anchor="start" dominant-baseline="middle" font-weight="700">φM<tspan dy="4.65" font-size="10.54">n</tspan><tspan dy="-4.65" font-size="15.5"> 對「層間淨距」假設有多敏感？</tspan></text><text x="420.00" y="55.00" font-family="'Noto Sans CJK TC','Noto Sans TC','Microsoft JhengHei','PingFang TC','Heiti TC',sans-serif" font-size="12.5" fill="#6B7684" text-anchor="middle" dominant-baseline="middle" font-weight="400">本題餘裕只有 0.9%</text><polygon points="100.00,402.00 662.00,402.00 662.00,260.77 100.00,260.77" fill="rgba(192,57,43,0.10)" stroke="none" stroke-width="1" opacity="1.0"/><line x1="100.00" y1="366.69" x2="662.00" y2="366.69" stroke="#E1E6ED" stroke-width="1.0" stroke-linecap="round" opacity="1.0"/><text x="90.00" y="366.69" font-family="'Latin Modern Math','Cambria Math','Times New Roman','Nimbus Roman',serif" font-size="12.5" fill="#6B7684" text-anchor="end" dominant-baseline="middle" font-weight="400" font-style="italic">69.5</text><line x1="100.00" y1="307.85" x2="662.00" y2="307.85" stroke="#E1E6ED" stroke-width="1.0" stroke-linecap="round" opacity="1.0"/><text x="90.00" y="307.85" font-family="'Latin Modern Math','Cambria Math','Times New Roman','Nimbus Roman',serif" font-size="12.5" fill="#6B7684" text-anchor="end" dominant-baseline="middle" font-weight="400" font-style="italic">70.0</text><line x1="100.00" y1="249.00" x2="662.00" y2="249.00" stroke="#E1E6ED" stroke-width="1.0" stroke-linecap="round" opacity="1.0"/><text x="90.00" y="249.00" font-family="'Latin Modern Math','Cambria Math','Times New Roman','Nimbus Roman',serif" font-size="12.5" fill="#6B7684" text-anchor="end" dominant-baseline="middle" font-weight="400" font-style="italic">70.5</text><line x1="100.00" y1="190.15" x2="662.00" y2="190.15" stroke="#E1E6ED" stroke-width="1.0" stroke-linecap="round" opacity="1.0"/><text x="90.00" y="190.15" font-family="'Latin Modern Math','Cambria Math','Times New Roman','Nimbus Roman',serif" font-size="12.5" fill="#6B7684" text-anchor="end" dominant-baseline="middle" font-weight="400" font-style="italic">71.0</text><line x1="100.00" y1="131.31" x2="662.00" y2="131.31" stroke="#E1E6ED" stroke-width="1.0" stroke-linecap="round" opacity="1.0"/><text x="90.00" y="131.31" font-family="'Latin Modern Math','Cambria Math','Times New Roman','Nimbus Roman',serif" font-size="12.5" fill="#6B7684" text-anchor="end" dominant-baseline="middle" font-weight="400" font-style="italic">71.5</text><line x1="160.21" y1="402.00" x2="160.21" y2="409.00" stroke="#6B7684" stroke-width="1.4" stroke-linecap="round" opacity="1.0"/><text x="160.21" y="424.00" font-family="'Latin Modern Math','Cambria Math','Times New Roman','Nimbus Roman',serif" font-size="12" fill="#6B7684" text-anchor="middle" dominant-baseline="middle" font-weight="400" font-style="italic">2.5</text><line x1="260.57" y1="402.00" x2="260.57" y2="409.00" stroke="#6B7684" stroke-width="1.4" stroke-linecap="round" opacity="1.0"/><text x="260.57" y="424.00" font-family="'Latin Modern Math','Cambria Math','Times New Roman','Nimbus Roman',serif" font-size="12" fill="#6B7684" text-anchor="middle" dominant-baseline="middle" font-weight="400" font-style="italic">3.0</text><line x1="360.93" y1="402.00" x2="360.93" y2="409.00" stroke="#6B7684" stroke-width="1.4" stroke-linecap="round" opacity="1.0"/><text x="360.93" y="424.00" font-family="'Latin Modern Math','Cambria Math','Times New Roman','Nimbus Roman',serif" font-size="12" fill="#6B7684" text-anchor="middle" dominant-baseline="middle" font-weight="400" font-style="italic">3.5</text><line x1="461.29" y1="402.00" x2="461.29" y2="409.00" stroke="#6B7684" stroke-width="1.4" stroke-linecap="round" opacity="1.0"/><text x="461.29" y="424.00" font-family="'Latin Modern Math','Cambria Math','Times New Roman','Nimbus Roman',serif" font-size="12" fill="#6B7684" text-anchor="middle" dominant-baseline="middle" font-weight="400" font-style="italic">4.0</text><line x1="561.64" y1="402.00" x2="561.64" y2="409.00" stroke="#6B7684" stroke-width="1.4" stroke-linecap="round" opacity="1.0"/><text x="561.64" y="424.00" font-family="'Latin Modern Math','Cambria Math','Times New Roman','Nimbus Roman',serif" font-size="12" fill="#6B7684" text-anchor="middle" dominant-baseline="middle" font-weight="400" font-style="italic">4.5</text><line x1="662.00" y1="402.00" x2="662.00" y2="409.00" stroke="#6B7684" stroke-width="1.4" stroke-linecap="round" opacity="1.0"/><text x="662.00" y="424.00" font-family="'Latin Modern Math','Cambria Math','Times New Roman','Nimbus Roman',serif" font-size="12" fill="#6B7684" text-anchor="middle" dominant-baseline="middle" font-weight="400" font-style="italic">5.0</text><line x1="100.00" y1="402.00" x2="662.00" y2="402.00" stroke="#6B7684" stroke-width="1.8" stroke-linecap="round" opacity="1.0"/><line x1="100.00" y1="402.00" x2="100.00" y2="96.00" stroke="#6B7684" stroke-width="1.8" stroke-linecap="round" opacity="1.0"/><text x="674.00" y="402.00" font-family="'Noto Sans CJK TC','Noto Sans TC','Microsoft JhengHei','PingFang TC','Heiti TC',sans-serif" font-size="12.5" fill="#6B7684" text-anchor="start" dominant-baseline="middle" font-weight="400">層間淨距 (cm)</text><text x="27.68" y="74.00" font-family="'Noto Sans CJK TC','Noto Sans TC','Microsoft JhengHei','PingFang TC','Heiti TC',sans-serif" font-size="13" fill="#6B7684" text-anchor="start" dominant-baseline="middle" font-weight="400">φM<tspan dy="3.90" font-size="8.84">n</tspan><tspan dy="-3.90" font-size="13"> (tf·m)</tspan></text><polyline points="100.00,128.96 102.81,130.17 105.62,131.38 108.43,132.59 111.24,133.80 114.05,135.01 116.86,136.22 119.67,137.42 122.48,138.63 125.29,139.84 128.10,141.05 130.91,142.26 133.72,143.47 136.53,144.68 139.34,145.89 142.15,147.09 144.96,148.30 147.77,149.51 150.58,150.72 153.39,151.93 156.20,153.14 159.01,154.35 161.82,155.56 164.63,156.76 167.44,157.97 170.25,159.18 173.06,160.39 175.87,161.60 178.68,162.81 181.49,164.02 184.30,165.23 187.11,166.43 189.92,167.64 192.73,168.85 195.54,170.06 198.35,171.27 201.16,172.48 203.97,173.69 206.78,174.89 209.59,176.10 212.40,177.31 215.21,178.52 218.02,179.73 220.83,180.94 223.64,182.15 226.45,183.36 229.26,184.56 232.07,185.77 234.88,186.98 237.69,188.19 240.50,189.40 243.31,190.61 246.12,191.82 248.93,193.03 251.74,194.23 254.55,195.44 257.36,196.65 260.17,197.86 262.98,199.07 265.79,200.28 268.60,201.49 271.41,202.70 274.22,203.90 277.03,205.11 279.84,206.32 282.65,207.53 285.46,208.74 288.27,209.95 291.08,211.16 293.89,212.37 296.70,213.57 299.51,214.78 302.32,215.99 305.13,217.20 307.94,218.41 310.75,219.62 313.56,220.83 316.37,222.04 319.18,223.24 321.99,224.45 324.80,225.66 327.61,226.87 330.42,228.08 333.23,229.29 336.04,230.50 338.85,231.70 341.66,232.91 344.47,234.12 347.28,235.33 350.09,236.54 352.90,237.75 355.71,238.96 358.52,240.17 361.33,241.37 364.14,242.58 366.95,243.79 369.76,245.00 372.57,246.21 375.38,247.42 378.19,248.63 381.00,249.84 383.81,251.04 386.62,252.25 389.43,253.46 392.24,254.67 395.05,255.88 397.86,257.09 400.67,258.30 403.48,259.51 406.29,260.71 409.10,261.92 411.91,263.13 414.72,264.34 417.53,265.55 420.34,266.76 423.15,267.97 425.96,269.18 428.77,270.38 431.58,271.59 434.39,272.80 437.20,274.01 440.01,275.22 442.82,276.43 445.63,277.64 448.44,278.84 451.25,280.05 454.06,281.26 456.87,282.47 459.68,283.68 462.49,284.89 465.30,286.10 468.11,287.31 470.92,288.51 473.73,289.72 476.54,290.93 479.35,292.14 482.16,293.35 484.97,294.56 487.78,295.77 490.59,296.98 493.40,298.18 496.21,299.39 499.02,300.60 501.83,301.81 504.64,303.02 507.45,304.23 510.26,305.44 513.07,306.65 515.88,307.85 518.69,309.06 521.50,310.27 524.31,311.48 527.12,312.69 529.93,313.90 532.74,315.11 535.55,316.32 538.36,317.52 541.17,318.73 543.98,319.94 546.79,321.15 549.60,322.36 552.41,323.57 555.22,324.78 558.03,325.99 560.84,327.19 563.65,328.40 566.46,329.61 569.27,330.82 572.08,332.03 574.89,333.24 577.70,334.45 580.51,335.65 583.32,336.86 586.13,338.07 588.94,339.28 591.75,340.49 594.56,341.70 597.37,342.91 600.18,344.12 602.99,345.32 605.80,346.53 608.61,347.74 611.42,348.95 614.23,350.16 617.04,351.37 619.85,352.58 622.66,353.79 625.47,354.99 628.28,356.20 631.09,357.41 633.90,358.62 636.71,359.83 639.52,361.04 642.33,362.25 645.14,363.46 647.95,364.66 650.76,365.87 653.57,367.08 656.38,368.29 659.19,369.50 662.00,370.71" fill="none" stroke="#2E7D6F" stroke-width="3.4" stroke-linecap="round" stroke-linejoin="round" opacity="1.0"/><line x1="100.00" y1="260.77" x2="662.00" y2="260.77" stroke="#C0392B" stroke-width="2.4" stroke-linecap="round" stroke-dasharray="8 5" opacity="1.0"/><text x="108.00" y="247.77" font-family="'Latin Modern Math','Cambria Math','Times New Roman','Nimbus Roman',serif" font-size="13.5" fill="#C0392B" text-anchor="start" dominant-baseline="middle" font-weight="700" font-style="italic">M<tspan dy="4.05" font-size="9.18">u</tspan><tspan dy="-4.05" font-size="13.5"> = 70.4 tf·m</tspan></text><circle cx="160.21" cy="154.86" r="5.0" fill="#6B7684" stroke="#FFFFFF" stroke-width="2.0"/><text x="160.21" y="138.86" font-family="'Latin Modern Math','Cambria Math','Times New Roman','Nimbus Roman',serif" font-size="12.5" fill="#6B7684" text-anchor="middle" dominant-baseline="middle" font-weight="700" font-style="italic">71.30</text><text x="160.21" y="444.00" font-family="'Noto Sans CJK TC','Noto Sans TC','Microsoft JhengHei','PingFang TC','Heiti TC',sans-serif" font-size="11.5" fill="#6B7684" text-anchor="middle" dominant-baseline="middle" font-weight="400">規範下限</text><circle cx="234.47" cy="186.80" r="6.2" fill="#B45309" stroke="#FFFFFF" stroke-width="2.0"/><text x="234.47" y="170.80" font-family="'Latin Modern Math','Cambria Math','Times New Roman','Nimbus Roman',serif" font-size="12.5" fill="#B45309" text-anchor="middle" dominant-baseline="middle" font-weight="700" font-style="italic">71.03</text><text x="211.73" y="444.00" font-family="'Noto Sans CJK TC','Noto Sans TC','Microsoft JhengHei','PingFang TC','Heiti TC',sans-serif" font-size="11.5" fill="#B45309" text-anchor="start" dominant-baseline="middle" font-weight="400">本解 = d<tspan dy="3.45" font-size="7.82">b</tspan></text><circle cx="360.93" cy="241.20" r="5.0" fill="#6B7684" stroke="#FFFFFF" stroke-width="2.0"/><text x="360.93" y="225.20" font-family="'Latin Modern Math','Cambria Math','Times New Roman','Nimbus Roman',serif" font-size="12.5" fill="#6B7684" text-anchor="middle" dominant-baseline="middle" font-weight="700" font-style="italic">70.57</text><circle cx="461.29" cy="284.37" r="5.0" fill="#6B7684" stroke="#FFFFFF" stroke-width="2.0"/><text x="461.29" y="268.37" font-family="'Latin Modern Math','Cambria Math','Times New Roman','Nimbus Roman',serif" font-size="12.5" fill="#6B7684" text-anchor="middle" dominant-baseline="middle" font-weight="700" font-style="italic">70.20</text><line x1="406.42" y1="402.00" x2="406.42" y2="110.12" stroke="#C0392B" stroke-width="1.8" stroke-linecap="round" stroke-dasharray="4 5" opacity="1.0"/><text x="414.42" y="136.00" font-family="'Noto Sans CJK TC','Noto Sans TC','Microsoft JhengHei','PingFang TC','Heiti TC',sans-serif" font-size="12.5" fill="#C0392B" text-anchor="start" dominant-baseline="middle" font-weight="700">3.73 cm 以上就不足</text><text x="420.00" y="478.00" font-family="'Noto Sans CJK TC','Noto Sans TC','Microsoft JhengHei','PingFang TC','Heiti TC',sans-serif" font-size="13.5" fill="#C0392B" text-anchor="middle" dominant-baseline="middle" font-weight="700">層間淨距只要從 2.87 放寬到 3.73 cm，6-D29 就不夠了</text><text x="420.00" y="502.00" font-family="'Noto Sans CJK TC','Noto Sans TC','Microsoft JhengHei','PingFang TC','Heiti TC',sans-serif" font-size="12.5" fill="#6B7684" text-anchor="middle" dominant-baseline="middle" font-weight="400">卷面務必明寫層間距假設值，並附上 φMn 與 Mu 的比較</text></svg>